<?xml version="1.0" encoding="UTF-8" standalone="no"?>
<!-- Created with Inkscape (http://www.inkscape.org/) -->

<svg
   width="162.13725mm"
   height="159.7276mm"
   viewBox="0 0 162.13725 159.7276"
   version="1.1"
   id="svg1"
   xml:space="preserve"
   xmlns="http://www.w3.org/2000/svg"
   xmlns:svg="http://www.w3.org/2000/svg"><defs
     id="defs1" /><g
     id="layer1"
     transform="translate(-23.678368,-60.485451)"><path
       style="fill:none;stroke:#090909;stroke-width:4.6;stroke-linecap:round;stroke-dasharray:none"
       d="m 182.38427,154.5995 c -1.1316,7.04255 -3.6323,13.97638 -6.82852,20.37292 -1.14567,2.29278 -2.35636,4.41623 -3.81543,6.61458 -4.54987,6.85519 -9.91795,13.42838 -16.22758,18.6227 -0.86871,0.71517 -1.71482,1.35002 -2.64583,2.04828 -1.01163,0.75872 -1.85768,1.38467 -2.91042,2.08217 -3.99238,2.64516 -8.28364,5.16078 -12.7,6.93306 -2.01653,0.80923 -4.03916,1.68156 -6.08542,2.40983 -13.55223,4.54396 -26.87888,5.30846 -41.010424,2.88103 -1.53868,-0.29682 -2.996336,-0.57426 -4.497912,-0.94483 -1.454579,-0.35897 -2.72003,-0.58107 -4.233333,-0.92951 -1.000884,-0.23046 -1.93003,-0.48162 -2.910417,-0.83785 -1.972603,-0.71677 -3.876092,-1.57465 -5.820833,-2.35369 -3.106465,-1.24443 -5.894344,-2.77605 -8.73125,-4.39973 -1.059367,-0.60631 -1.920277,-1.12834 -2.910417,-1.78715 -8.971663,-5.96958 -16.472004,-13.27784 -22.398326,-22.40139 -1.726848,-2.65848 -3.2736,-5.22271 -4.653687,-7.9375 -3.362774,-6.61496 -5.357849,-13.38696 -6.904277,-20.6375 -0.616438,-2.89022 -0.964042,-6.09156 -0.96871,-8.99584 -0.0013,-0.78944 0.08548,-1.9558 -0.153116,-2.6393 v -2.6589 c 0.36836,-1.05521 0.153116,-1.96285 0.153116,-2.90388 0,-0.79916 -0.0252,-1.30339 0.01041,-2.11667 0.07939,-1.81313 0.341054,-4.1985 0.681261,-6.08541 0.947664,-5.25609 2.108759,-10.65851 4.020809,-15.61042 1.103585,-2.85811 2.424783,-5.7585 3.822576,-8.46666 0.74444,-1.44233 1.528086,-2.82861 2.365939,-4.23334 5.330324,-8.936725 12.142767,-16.423535 20.319836,-22.665145 3.864469,-2.94977 8.273514,-5.73878 12.7,-7.81971 3.891732,-1.82954 8.291399,-3.45039 12.435417,-4.66655 1.876763,-0.55077 3.836636,-1.00421 5.820834,-1.28554 1.15955,-0.16442 2.32319,-0.27927 3.43958,-0.45241 2.97106,-0.46078 6.127734,-0.93075 9.260424,-0.94585 5.56937,-0.0268 11.02508,0.0716 16.40417,0.90583 1.20412,0.18674 2.47335,0.34781 3.70417,0.52999 2.12462,0.31448 4.32625,0.74231 6.35,1.43785 6.75572,2.32184 13.61575,4.98545 19.57916,8.85905 2.14706,1.39465 4.10218,2.74919 6.08542,4.29438 3.77544,2.94153 7.08928,6.00579 10.30833,9.3727 0.53271,0.55717 0.91946,1.01577 1.39846,1.5875 0.60331,0.72007 1.12804,1.35146 1.73121,2.11666 1.81044,2.29677 3.50404,4.72074 5.02261,7.14375 1.39273,2.222195 2.74142,4.697705 3.96365,7.143745 3.26451,6.53322 5.66385,13.65089 6.82852,20.90208 0.40607,2.52814 0.71706,5.74712 0.95463,8.20209 0.0694,0.71677 0.17888,1.1582 0.1767,6.08542 -0.38444,7.21379 -0.6544,10.26098 -1.13133,13.22916 z M 59.204401,114.912 c -1.448148,-0.70144 -1.777629,-1.3273 -2.376147,-1.85208 -0.225126,-0.19739 -0.643194,-0.43237 -0.903789,-1.08304 -0.362439,-0.90496 -0.161285,-1.86804 -0.159648,-2.88571 10e-4,-0.63724 0.0056,-1.26161 0.07554,-1.85208 0.151486,-1.27971 0.539336,-3.03445 1.111414,-4.23334 1.351468,-2.83223 4.198501,-5.385945 7.279716,-5.962705 1.039193,-0.19453 1.573882,0.0276 2.221804,-0.73598 0.544484,-0.64169 0.583047,-2.45746 0.784973,-3.35547 0.470001,-2.0902 2.014908,-3.89122 3.607806,-5.2047 0.759644,-0.62639 1.433678,-1.06156 2.38125,-1.31618 0.810848,-0.21789 1.642346,-0.32983 2.645834,-0.35442 1.136655,-0.0279 1.977523,0.2089 2.899798,-0.2758 0.87919,-0.46205 1.111023,-1.0368 1.723672,-1.84474 0.940034,-1.23968 2.710114,-3.12476 4.372363,-3.84482 1.622172,-0.7027 3.019179,-0.90314 4.762499,-1.10672 2.52411,-0.29475 4.79691,0.3785 7.143754,1.39968 2.18219,0.94953 3.68781,2.20739 5.17938,4.34153 0.84255,1.20551 1.13878,1.82514 2.49354,1.95273 0.99974,0.0941 2.19348,-1.01866 2.84998,-1.95273 1.46788,-2.08849 2.93383,-3.3648 5.08752,-4.33848 2.05684,-0.9299 3.70371,-1.33363 5.82083,-1.45356 2.20617,-0.12498 4.18724,0.31062 6.08542,1.14999 1.81418,0.80223 3.35556,2.24734 4.47423,3.85238 0.53824,0.77226 0.83568,1.42789 1.62262,1.84474 1.28466,0.68049 1.7635,0.13015 3.69273,0.31685 3.71438,0.35946 7.28183,2.97239 8.08021,7.09883 0.19175,0.99109 0.22828,2.44392 0.65451,3.02352 0.61565,0.83717 1.04953,0.54494 2.37778,0.80416 1.41341,0.27585 3.0666,1.10686 4.23232,2.08012 2.89645,2.418265 4.14099,5.786155 4.23047,9.438025 0.0325,1.32697 0.0625,3.06398 -0.26805,3.61822 -0.87942,1.47429 -1.76783,1.6004 -3.16766,2.99636 M 104.71274,87.130755 v 3.175 2.91042 9.260415 2.64583 1.32292 2.91041 9.26042 2.64583 1.32292 1.32291 2.64584 6.35 14.2875 3.43958 1.32292 1.32291 3.175 14.55209 5.55625 3.43958 1.32292 2.91042 c 0,1.22216 6e-5,4.12434 0,5.02708 -3e-5,0.52463 0.17753,1.51554 -0.15965,2.35654 -0.64255,1.60268 -1.68024,1.4036 -2.7771,2.93614 -1.44927,2.02494 -2.64358,3.31094 -4.73617,4.48547 -1.860254,1.04412 -3.839944,1.50102 -5.820834,1.58852 -2.39657,0.10587 -4.802479,-0.10676 -6.879169,-1.1204 -1.361811,-0.6647 -2.382106,-1.3565 -3.439381,-2.33348 -1.005628,-0.92924 -2.063089,-2.16495 -2.594181,-3.41487 -0.261729,-0.61599 -0.538602,-1.4014 -0.485682,-2.11667 0.06726,-0.90911 0.535541,-1.69338 0.962994,-2.38125 m 11.906249,-99.747915 -3.250535,4.7625 -0.189047,5.02709 m 31.220836,-9.525 3.29157,4.23333 0.4126,4.7625 m -55.562506,-2.38125 0.492828,0.57122 c 1.005946,1.48931 1.459007,2.46517 2.946755,4.191275 m 72.495843,-4.762495 c -0.88842,1.16114 -1.00685,2.76665 -3.175,4.497915 m -42.33334,3.175 c 1.42811,0.79492 3.10209,1.62879 4.23334,1.85188 0.96479,0.19026 1.67337,0.42012 3.175,0.46077 0.89471,0.0242 1.88189,-0.18199 2.11666,-0.20946 1.54524,-0.18084 2.55942,-0.43508 5.55625,-2.10319 m -34.660419,6.61458 -1.102226,3.96875 -0.380339,2.8608 -0.914201,0.60696 -2.101151,-0.0284 -3.439583,-0.26438 m 62.706259,-6.87917 0.71433,2.91042 0.344,4.49791 0.83621,-0.11249 2.33879,-0.15311 3.43958,-0.26356 m -19.05,-6.61459 c 0.33802,3.1669 -1.08386,6.38247 -3.44346,8.3797 -1.09022,0.92279 -2.35268,1.43515 -3.70029,1.89414 -1.48625,0.50622 -3.28468,0.79635 -4.7625,0.99096 -1.85375,0.24412 -2.49151,0.11229 -3.175,0.11229 h -1.32291 -1.05834 c -0.66555,0 -1.27371,0.11767 -2.91041,-0.0755 -1.3332,-0.15739 -3.60197,-0.55964 -5.027094,-1.06446 -1.55443,-0.55063 -3.03718,-1.15856 -4.20577,-2.32715 -1.92671,-1.9267 -2.66584,-4.64174 -2.6734,-7.38077 m -32.808329,0.52917 c -0.230097,0.18575 -0.439944,0.41457 -0.836213,0.65125 -1.920634,1.14713 -4.838547,3.09873 -6.18382,6.22791 -1.034601,2.40654 -1.555865,4.93784 -1.216552,7.40834 0.139657,1.01683 0.35318,2.97226 0.451587,3.70416 0.06017,0.44754 0.238513,1.11718 0.06451,1.84821 -0.271499,1.14065 -1.183631,1.49083 -1.860453,2.39554 -0.783105,1.04679 -1.819254,3.78462 -2.167909,5.28125 -0.390694,1.67709 -0.341032,3.19051 -0.112489,4.7625 0.344926,2.37252 1.444791,4.69185 2.879181,6.61459 0.60917,0.81657 0.913952,1.22275 1.113863,2.11666 0.225346,1.00765 -0.191102,2.39125 -0.436684,3.70417 -0.60594,3.23944 -1.147562,6.64759 0.192107,9.78958 0.562892,1.32018 1.161612,2.61784 2.0838,3.70417 1.294686,1.52513 2.302229,2.18869 3.912403,2.97472 0.90396,0.44129 1.714079,0.68292 2.645833,0.83786 0.775453,0.12894 1.848272,0.036 2.373898,0.80008 0.519825,0.75567 0.262746,2.71915 0.425253,3.85401 0.250437,1.74891 0.681725,3.91773 1.722448,5.55625 0.840045,1.32258 1.543672,2.53004 2.646851,3.70029 1.322125,1.4025 2.794019,2.2169 4.473217,2.96839 1.81029,0.81017 3.793352,1.0272 5.820833,1.00322 1.725621,-0.0204 2.270824,-0.2517 3.704167,-0.26357 m 76.200002,-79.375 c 0.17414,0.11651 0.41799,0.33961 0.83621,0.53427 2.13424,0.99337 5.42634,4.0372 6.58497,7.13865 0.72813,1.94905 0.76834,2.72625 0.81152,4.49791 0.0234,0.95842 0.002,1.52248 -0.10534,2.38125 -0.11464,0.91663 -0.15246,2.05322 -0.23477,2.91042 -0.10597,1.1036 0.0352,1.17879 -0.37545,2.06011 -0.30463,0.65382 -2.3056,1.44402 -2.75464,1.64406 M 75.873151,118.35158 c 0.977399,1.57399 1.672091,4.26928 3.96875,6.61459 m 53.181259,-6.35 c -0.52576,2.02608 -1.40917,4.03669 -3.43959,6.08541 m 21.69584,-1.05833 c -0.74079,1.58416 -2.27788,2.73575 -3.96875,3.16336 -0.70929,0.17938 -1.41162,0.27475 -2.11667,0.38463 -0.55511,0.0865 -1.02159,0.13844 -1.5875,0.1523 -1.18828,0.0291 -1.51185,-0.35197 -2.56172,0.16352 -0.82744,0.40629 -0.76611,1.87709 -0.86459,2.75077 -0.0896,0.79509 -0.25642,2.06147 -0.57674,2.91042 -0.552,1.46298 -1.59373,2.87961 -2.63623,3.95813 -2.62002,2.71056 -3.45412,1.29573 -4.47792,3.4749 -0.23725,0.505 -0.0991,0.88483 -0.057,1.03384 0.1812,0.64143 0.36509,1.28868 1.07079,2.38105 1.09497,1.69493 3.26718,4.63084 3.66864,6.87916 0.11981,0.67092 0.30544,1.70589 0.29623,2.38125 -0.008,0.6213 -0.1264,1.01393 -0.21089,1.5875 -0.22086,1.49928 -1.60637,4.34048 -2.53334,5.55625 -0.75098,0.98495 -1.17098,2.24648 -2.25754,2.56275 -1.03322,0.30074 -1.57145,0.26375 -2.61806,0.32296 -0.74553,0.0422 -2.73285,-0.23013 -3.43959,-0.23885 -0.61693,-0.008 -1.13068,0.1064 -1.83759,-0.0851 -0.88299,-0.23925 -1.19836,-1.16024 -1.33741,-2.03256 M 58.146067,124.17242 c 1.879399,1.86363 3.368246,2.63656 5.820834,3.01882 0.687357,0.10713 1.200035,0.1474 1.852083,0.15516 0.867627,0.0103 1.686254,-0.27012 2.561722,0.16066 0.923684,0.45452 0.59509,1.55685 0.766595,2.75077 0.168248,1.17125 0.464648,2.49209 1.03445,3.70417 0.770818,1.63969 1.844384,2.97727 3.31015,4.16066 1.612022,1.30146 2.449366,1.6181 3.175,2.11646 0.223141,0.15325 0.558763,0.47332 1.322916,0.51794 1.057361,0.0617 2.367298,-0.27467 3.439584,-0.53489 2.218614,-0.5384 4.721974,-2.20749 6.246905,-4.1435 0.89281,-1.13351 1.53606,-2.53423 1.95518,-3.96875 m 29.897924,-0.26459 1.79921,3.96855 2.96329,2.831 3.96875,1.66324 3.70416,0.53305 m 29.36875,-8.20209 c 0.24007,0.21032 0.50021,0.43144 0.83233,0.72373 1.59722,1.4057 2.77742,3.79889 3.24462,6.68461 0.34425,2.12624 0.33514,4.23919 -0.31296,6.35 -0.64097,2.08756 -1.52703,3.4866 -2.841,5.29166 -0.59667,0.81967 -0.96761,1.63646 -1.7443,2.06952 -0.79296,0.44211 -1.37766,0.3574 -1.82452,0.423 -0.64644,0.0949 -1.465,0.14455 -2.38125,0.4179 m -107.685423,-21.69583 2.38125,0.79375 m 7.9375,6.35 -0.79375,0.79375 m 92.339593,-0.79375 1.05833,1.05833 m -74.083339,-0.26458 c -0.43617,0.63809 -0.923745,2.23676 -2.648692,4.49791 -0.957863,1.25563 -2.233383,4.10037 -2.553353,5.55625 -0.127669,0.58091 -0.314201,1.15823 -0.366047,1.85209 -0.04489,0.60078 0.03361,1.0458 0.117794,1.5875 0.196129,1.26197 0.52668,2.48066 1.06487,3.70416 0.454817,1.03397 1.004541,1.79389 1.723264,2.64584 0.510147,0.60471 1.298947,2.1766 2.168113,2.34307 0.817969,0.15666 1.27151,0.1197 1.816967,0.19048 0.589075,0.0764 2.345384,-0.0718 3.175,-0.12862 1.136381,-0.0778 2.117793,-0.12676 2.895923,-0.0151 1.250667,0.17947 1.049464,0.67262 1.517269,2.10809 0.918233,2.81763 4.043417,4.81734 6.963887,4.44158 1.49857,-0.19282 2.5386,-0.75921 3.704174,-1.79574 m -9.525003,-21.43126 c 0.150099,1.70853 0.486239,2.86975 1.646909,4.22946 0.97865,1.14647 2.18073,1.94917 3.64476,2.41043 2.46255,0.77589 5.018954,-0.0109 7.408334,-0.3985 2.00764,-0.3257 2.52784,-0.3839 3.175,-0.48548 0.14212,-0.0223 0.62793,-0.15046 1.32292,-0.13106 0.58259,0.0163 0.87398,0.10127 1.05833,0.13106 0.6316,0.10208 1.08474,0.17129 2.64584,0.40137 1.93878,0.28573 5.69372,1.19925 7.9375,0.48364 1.31229,-0.41853 2.39188,-1.01887 3.35261,-1.99479 1.21423,-1.23343 1.61478,-2.78086 2.20364,-4.38155 m -57.943759,5.29167 2.910416,0.8111 1.852084,0.23681 2.910416,0.0104 m 66.145843,0 2.91041,-0.0237 1.85209,-0.24478 2.91041,-0.78987 m -97.102086,1.85208 c 2.148762,0.40485 1.7585,0.52718 4.7625,0.52917 m 108.214586,-0.26459 c 0.66513,2.76178 1.55952,5.77344 1.27801,8.73125 -0.12288,1.29111 -0.41667,2.54081 -0.83071,3.70417 -0.65082,1.82862 -1.66313,3.58274 -3.11701,4.98115 -1.56515,1.50542 -3.94255,2.51545 -5.79695,2.84121 -0.61121,0.10737 -1.45298,0.35515 -2.11177,0.18455 -1.08754,-0.28162 -1.37557,-1.31697 -1.79798,-2.18608 -0.58981,-1.21348 -1.74105,-3.49909 -2.17567,-5.02708 m -23.28333,-4.23333 c -0.52028,1.98974 -0.88537,3.94224 -3.17888,5.45356 -1.45782,0.96063 -3.15685,1.36689 -4.75862,1.00342 -1.42226,-0.32273 -2.29582,-0.67796 -3.43959,-1.69448 m -36.247919,-4.49792 c -0.546087,1.92364 -1.311908,3.24864 -1.878419,5.02708 -0.763188,2.39589 -0.238026,5.68596 1.473174,7.64904 0.815919,0.93601 1.802777,1.7366 3.051078,2.11176 1.241413,0.3731 2.925875,0.52204 4.233333,0.55408 0.807053,0.0198 1.734322,0.16318 2.617048,-0.0798 0.729478,-0.20083 0.538491,0.42608 0.699645,-0.0122 m 47.48331,-15.2499 c 0.6604,2.34356 2.14456,4.79328 2.11177,7.40833 -0.0268,2.1351 -0.63347,4.44553 -2.40105,5.98519 -0.68832,0.59956 -1.4712,1.05928 -2.35655,1.33618 -1.27573,0.399 -2.56771,0.54437 -3.96875,0.60572 -1.24124,0.0544 -2.30788,-0.19125 -3.13581,0.17006 -0.60565,0.26432 -0.693,0.64094 -0.81743,1.16837 -0.17548,0.74389 -0.47923,2.30411 -0.85111,3.1699 -1.25248,2.91593 -3.22959,3.68344 -5.77898,5.02709 M 62.643984,167.2995 c -1.153026,2.60443 -2.005954,5.04572 -3.030258,6.57212 -0.243791,0.36329 -0.469621,0.58927 -0.673909,0.83621 m 91.810423,0.26459 c -0.0106,1.28006 -0.13165,1.65834 -0.26458,3.175 -0.0676,0.77169 -0.18771,1.69394 -0.35441,2.38125 -0.24468,1.00877 -1.08392,3.0319 -1.61017,3.96875 -0.51155,0.91067 -0.85683,1.58655 -1.53135,2.38125 -1.80711,2.12908 -3.60832,3.55182 -6.02907,4.48668 -1.49072,0.5757 -3.32736,0.80499 -5.02709,0.80499 -1.57149,0 -2.74723,-0.004 -3.66885,-0.42036 -1.08443,-0.48975 -1.17552,-1.71 -1.8874,-2.75464 M 86.191901,178.94117 c 0.588425,4.65185 2.522705,6.95658 6.614585,9.26042 m 5.291664,-8.46667 2.64584,0.26438 2.64583,0.0755 1.32292,0.12064 3.175,-0.19598 3.175,-0.26458 m 20.37292,12.43542 c -0.55567,3.70704 -3.61207,6.00052 -6.87917,7.46243 -2.06669,0.92478 -4.28474,1.09959 -6.61458,0.99382 -1.77358,-0.0805 -3.59734,-0.48179 -5.29167,-1.30761 -2.26084,-1.10192 -3.74105,-2.70536 -5.17938,-4.76331 -1.01252,-1.44872 -1.77212,-1.73361 -2.49354,-2.12075"
       id="path1" /></g></svg>
